#!OML:ASF F:\VICON\USERDATA\INSTALL\rory3\rory3.ASF
:FULLY-SPECIFIED
:DEGREES
476
root 4.36495 17.877 9.44507 -6.12741 17.3622 -0.661811
lowerback 8.6907 -1.22034 -3.80695
upperback 0.107615 -1.97329 0.658678
thorax -4.61291 -0.883439 3.07305
lowerneck -14.362 -12.6556 -15.5866
upperneck 21.2006 -18.1159 15.5949
head 12.3429 -7.90377 5.30455
rclavicle 5.19946e-015 -1.37161e-014
rhumerus -41.7486 28.708 -101.219
rradius 86.9705
rwrist 16.3214
rhand -23.5319 19.8294
rfingers 7.12502
rthumb 2.92943 -10.1303
lclavicle 5.19946e-015 -1.37161e-014
lhumerus -43.4766 -27.791 104.916
lradius 85.3182
lwrist 44.9477
lhand -18.7865 50.0373
lfingers 7.12502
lthumb 7.51119 79.8839
rfemur -4.8675 0.946872 16.5132
rtibia 28.5706
rfoot -12.9236 -2.79383
rtoes -6.44086
lfemur -2.42028 -1.32765 -19.7701
ltibia 25.1479
lfoot -10.3649 7.43352
ltoes -7.33725
477
root 4.36836 17.8778 9.41786 -5.94464 17.4068 -0.451749
lowerback 8.78574 -1.34888 -4.05116
upperback 0.13362 -2.17516 0.600475
thorax -4.61652 -0.978689 3.17663
lowerneck -13.9883 -12.8796 -15.7435
upperneck 20.8995 -18.4593 15.7583
head 12.2537 -8.08007 5.32633
rclavicle -6.66239e-015 -1.14301e-014
rhumerus -41.9075 28.4247 -101.205
rradius 87.0287
rwrist 16.3821
rhand -23.4466 19.774
rfingers 7.12502
rthumb 3.01181 -10.1845
lclavicle -6.66239e-015 -1.14301e-014
lhumerus -43.5531 -27.5124 104.915
lradius 85.3175
lwrist 44.977
lhand -18.5889 49.6644
lfingers 7.12502
lthumb 7.702 79.5041
rfemur -5.10638 0.818824 16.2191
rtibia 28.6083
rfoot -12.835 -2.69531
rtoes -6.5423
lfemur -2.62955 -1.41699 -20.056
ltibia 25.1179
lfoot -10.2482 7.53014
ltoes -7.16174
478
root 4.37106 17.8819 9.39269 -5.87106 17.3227 -0.501172
lowerback 8.92177 -1.41636 -4.05245
upperback 0.153171 -2.27142 0.580722
thorax -4.6652 -1.02541 3.17286
lowerneck -13.6037 -13.1395 -15.8574
upperneck 20.6487 -18.8991 15.9965
head 12.207 -8.28847 5.35088
rclavicle -7.15004e-015 -6.95746e-015
rhumerus -41.9986 28.415 -101.289
rradius 86.8936
rwrist 15.9493
rhand -23.6493 19.5159
rfingers 7.12502
rthumb 2.81607 -10.4452
lclavicle -7.15004e-015 -6.95746e-015
lhumerus -43.6054 -27.3594 104.932
lradius 85.2951
lwrist 45.1978
lhand -18.7821 49.8383
lfingers 7.12502
lthumb 7.51551 79.6848
rfemur -5.29791 0.863387 16.2399
rtibia 28.623
rfoot -12.7872 -2.64338
rtoes -6.68502
lfemur -2.80605 -1.38397 -20.0231
ltibia 25.0819
lfoot -10.1734 7.47866
ltoes -6.52311
479
root 4.37332 17.8891 9.37578 -5.75887 17.2626 -0.468795
lowerback 8.8627 -1.4629 -4.22209
upperback 0.277685 -2.34547 0.572643
thorax -4.48927 -1.06504 3.26351
lowerneck -13.2654 -13.4311 -16.0055
upperneck 20.2741 -19.37 16.3105
head 12.1439 -8.50692 5.39655
rclavicle 5.5287e-016 -1.98785e-015
rhumerus -41.9355 28.1321 -101.2
rradius 86.8577
rwrist 15.6269
rhand -23.4174 19.4633
rfingers 7.12502
rthumb 3.04001 -10.4948
lclavicle 5.5287e-016 -1.98785e-015
lhumerus -43.5203 -27.1939 104.887
lradius 85.3223
lwrist 44.9595
lhand -19.2534 50.7028
lfingers 7.12502
lthumb 7.06059 80.5651
rfemur -5.48733 0.960989 16.1898
rtibia 28.6335
rfoot -12.7995 -2.64654
rtoes -6.53348
lfemur -2.97553 -1.2055 -20.0549
ltibia 25.0315
lfoot -10.1533 7.38668
ltoes -6.31844
480
root 4.38013 17.8907 9.35449 -5.64035 17.277 -0.414823
lowerback 8.8338 -1.5549 -4.32817
upperback 0.352774 -2.47726 0.532422
thorax -4.38061 -1.13259 3.29368
lowerneck -12.8727 -13.6845 -15.9707
upperneck 19.966 -19.7763 16.389
head 12.0322 -8.70904 5.34424
rclavicle -2.65657e-014 -2.38542e-015
rhumerus -42.2548 27.7318 -101.415
rradius 86.9946
rwrist 14.6664
rhand -23.2882 18.965
rfingers 7.12502
rthumb 3.16482 -10.9913
lclavicle -2.65657e-014 -2.38542e-015
lhumerus -43.5956 -26.9727 104.834
lradius 85.4347
lwrist 44.6554
lhand -20.0666 51.4405
lfingers 7.12502
lthumb 6.27554 81.3275
rfemur -5.66105 0.972424 16.0789
rtibia 28.599
rfoot -12.7485 -2.63407
rtoes -6.60205
lfemur -3.15673 -1.18944 -20.1487
ltibia 25.018
lfoot -10.1843 7.30779
ltoes -6.18698
481
root 4.38635 17.8897 9.32288 -5.53087 17.2723 -0.375956
lowerback 8.98172 -1.62089 -4.3529
upperback 0.322472 -2.57727 0.487311
thorax -4.48761 -1.17841 3.27913
lowerneck -12.2021 -13.898 -16.004
upperneck 19.5818 -20.1329 16.4694
head 11.8364 -8.91403 5.33009
rclavicle 4.08999e-014 -5.96354e-016
rhumerus -42.4886 27.386 -101.409
rradius 87.0279
rwrist 14.3825
rhand -22.9205 18.4639
rfingers 7.12502
rthumb 3.51986 -11.4868
lclavicle 4.08999e-014 -5.96354e-016
lhumerus -43.8146 -26.8412 104.899
lradius 85.5019
lwrist 44.4013
lhand -20.4585 51.5363
lfingers 7.12502
lthumb 5.89713 81.4342
rfemur -5.87236 1.01713 15.9695
rtibia 28.5715
rfoot -12.6171 -2.57552
rtoes -6.37563
lfemur -3.36772 -1.22046 -20.2506
ltibia 24.9998
lfoot -10.0832 7.32076
ltoes -6.30882
482
root 4.38884 17.8916 9.29005 -5.44368 17.2427 -0.417269
lowerback 9.23436 -1.68473 -4.34008
upperback 0.278158 -2.67438 0.474661
thorax -4.66852 -1.22088 3.28235
lowerneck -11.6955 -14.1144 -16.1423
upperneck 19.3856 -20.5104 16.6479
head 11.7764 -9.11237 5.3589
rclavicle 2.23943e-014 -1.49089e-014
rhumerus -42.3793 27.3272 -101.218
rradius 86.9042
rwrist 14.5394
rhand -22.2631 17.8499
rfingers 7.12502
rthumb 4.15467 -12.0893
lclavicle 2.23943e-014 -1.49089e-014
lhumerus -43.9622 -26.6946 104.943
lradius 85.5405
lwrist 44.2491
lhand -20.5388 51.1159
lfingers 7.12502
lthumb 5.8196 81.016
rfemur -6.08797 1.01396 15.9696
rtibia 28.5568
rfoot -12.5529 -2.55114
rtoes -6.60637
lfemur -3.59882 -1.17721 -20.2516
ltibia 25.0095
lfoot -9.97463 7.32432
ltoes -6.23857
483
root 4.39256 17.8945 9.26266 -5.32497 17.226 -0.390447
lowerback 9.34444 -1.76182 -4.42014
upperback 0.354082 -2.78859 0.472395
thorax -4.63716 -1.27761 3.34174
lowerneck -11.5704 -14.37 -16.2458
upperneck 19.2287 -20.8865 16.7595
head 11.7931 -9.28913 5.33465
rclavicle 6.68848e-014 7.95139e-015
rhumerus -42.2888 27.4906 -101.204
rradius 86.7537
rwrist 13.5
rhand -22.2675 17.3126
rfingers 7.12502
rthumb 4.15045 -12.6267
lclavicle 6.68848e-014 7.95139e-015
lhumerus -43.8938 -26.5479 104.892
lradius 85.6429
lwrist 44.0415
lhand -20.8067 50.5844
lfingers 7.12502
lthumb 5.56096 80.4914
rfemur -6.30166 1.03476 15.8943
rtibia 28.5488
rfoot -12.5078 -2.53806
rtoes -6.61027
lfemur -3.85161 -1.09552 -20.3054
ltibia 25.0387
lfoot -9.87642 7.24023
ltoes -5.16683
484
root 4.39616 17.8958 9.23568 -5.20678 17.2027 -0.341582
lowerback 9.42989 -1.82886 -4.58504
upperback 0.417094 -2.89562 0.515442
thorax -4.59932 -1.32868 3.49462
lowerneck -11.3682 -14.5793 -16.4426
upperneck 19.1075 -21.1981 16.8898
head 11.8109 -9.44564 5.35032
rclavicle 3.52664e-014 1.39149e-015
rhumerus -42.3608 27.3982 -101.111
rradius 86.7588
rwrist 12.6941
rhand -21.9255 16.8823
rfingers 7.12502
rthumb 4.48072 -13.0503
lclavicle 3.52664e-014 1.39149e-015
lhumerus -43.8721 -26.3376 104.931
lradius 85.8413
lwrist 43.9009
lhand -21.0036 49.3812
lfingers 7.12502
lthumb 5.37092 79.2931
rfemur -6.50497 1.04158 15.7958
rtibia 28.543
rfoot -12.447 -2.49819
rtoes -6.36178
lfemur -4.10089 -0.940923 -20.3744
ltibia 25.0822
lfoot -9.79751 7.11433
ltoes -4.61182
485
root 4.39989 17.8975 9.20344 -5.1268 17.1943 -0.383179
lowerback 9.66133 -1.89785 -4.59588
upperback 0.396023 -2.99954 0.533334
thorax -4.74008 -1.37486 3.54399
lowerneck -10.9319 -14.7432 -16.5213
upperneck 18.8901 -21.4611 16.9434
head 11.7122 -9.59774 5.34543
rclavicle -1.68474e-014 -1.09332e-014
rhumerus -42.5049 27.2391 -101.109
rradius 86.751
rwrist 11.849
rhand -21.5036 16.3152
rfingers 7.12502
rthumb 4.88807 -13.6084
lclavicle -1.68474e-014 -1.09332e-014
lhumerus -43.9258 -26.1678 104.959
lradius 85.9788
lwrist 43.7562
lhand -20.2215 46.9955
lfingers 7.12502
lthumb 6.12602 76.8869
rfemur -6.71178 1.07536 15.7912
rtibia 28.565
rfoot -12.3724 -2.49352
rtoes -5.69512
lfemur -4.3356 -0.834247 -20.3522
ltibia 25.1119
lfoot -9.77045 6.97723
ltoes -4.24651
486
root 4.40604 17.8985 9.17001 -5.00456 17.2345 -0.298482
lowerback 9.93217 -1.93917 -4.67551
upperback 0.328099 -3.08077 0.491802
thorax -4.95403 -1.40559 3.57101
lowerneck -10.5076 -14.902 -16.6737
upperneck 18.7822 -21.7493 17.0916
head 11.6865 -9.75391 5.38184
rclavicle 7.78172e-015 -5.96354e-016
rhumerus -42.7764 26.8555 -101.124
rradius 86.7764
rwrist 11.0566
rhand -21.118 15.5263
rfingers 7.12502
rthumb 5.26043 -14.3884
lclavicle 7.78172e-015 -5.96354e-016
lhumerus -44.039 -26.127 104.994
lradius 85.8752
lwrist 43.1764
lhand -21.3075 49.9782
lfingers 7.12502
lthumb 5.07741 79.8974
rfemur -6.94621 1.06343 15.6344
rtibia 28.6148
rfoot -12.3374 -2.48519
rtoes -5.65518
lfemur -4.56791 -0.786684 -20.4891
ltibia 25.1315
lfoot -9.74944 6.82579
ltoes -3.73623
487
root 4.41166 17.8965 9.13351 -4.8647 17.2932 -0.20277
lowerback 10.1599 -2.00615 -4.75104
upperback 0.295849 -3.19337 0.444821
thorax -5.10387 -1.45434 3.5915
lowerneck -10.1346 -15.0337 -16.8038
upperneck 18.6294 -21.9892 17.2513
head 11.6443 -9.88463 5.42625
rclavicle -2.19201e-014 1.5704e-014
rhumerus -42.9851 26.3473 -101.154
rradius 86.7731
rwrist 10.4299
rhand -20.7556 14.7838
rfingers 7.12502
rthumb 5.61037 -15.122
lclavicle -2.19201e-014 1.5704e-014
lhumerus -44.1851 -26.0114 104.99
lradius 85.8852
lwrist 42.4852
lhand -21.5191 50.6794
lfingers 7.12502
lthumb 4.87315 80.6034
rfemur -7.17875 0.955935 15.4436
rtibia 28.6457
rfoot -12.27 -2.35986
rtoes -5.52297
lfemur -4.81405 -0.843447 -20.6538
ltibia 25.175
lfoot -9.70513 6.70695
ltoes -3.40536
488
root 4.41443 17.8963 9.1001 -4.71541 17.3191 -0.0849166
lowerback 10.287 -2.04357 -4.8737
upperback 0.343409 -3.26607 0.376963
thorax -5.11557 -1.48817 3.60392
lowerneck -9.86625 -15.1971 -16.916
upperneck 18.4873 -22.2848 17.4771
head 11.6463 -10.0264 5.47234
rclavicle 1.45718e-014 4.37326e-015
rhumerus -42.9858 25.9551 -101.099
rradius 86.7893
rwrist 9.74736
rhand -20.2337 13.9546
rfingers 7.12502
rthumb 6.1142 -15.9371
lclavicle 1.45718e-014 4.37326e-015
lhumerus -44.1813 -26.0674 104.953
lradius 85.9654
lwrist 42.0063
lhand -21.4811 50.3468
lfingers 7.12502
lthumb 4.90985 80.2699
rfemur -7.42943 0.863922 15.2454
rtibia 28.6714
rfoot -12.2011 -2.23463
rtoes -5.47541
lfemur -5.08024 -0.837412 -20.8188
ltibia 25.2141
lfoot -9.61762 6.625
ltoes -2.92675
489
root 4.41703 17.8957 9.07048 -4.6421 17.2406 -0.12407
lowerback 10.4005 -2.03993 -4.84256
upperback 0.358759 -3.26389 0.360341
thorax -5.1659 -1.48652 3.57414
lowerneck -9.52903 -15.3656 -16.9839
upperneck 18.4056 -22.5528 17.4746
head 11.612 -10.1757 5.44075
rclavicle 8.85213e-017 3.77691e-015
rhumerus -43.1256 25.7503 -101.056
rradius 86.8497
rwrist 8.87935
rhand -19.8097 13.1933
rfingers 7.12502
rthumb 6.52354 -16.6862
lclavicle 8.85213e-017 3.77691e-015
lhumerus -44.2373 -26.1287 105.006
lradius 86.0362
lwrist 41.7201
lhand -21.4692 49.7105
lfingers 7.12502
lthumb 4.92134 79.6334
rfemur -7.63731 0.978891 15.2381
rtibia 28.662
rfoot -12.0921 -2.15409
rtoes -4.60582
lfemur -5.31183 -0.868044 -20.8086
ltibia 25.2774
lfoot -9.55809 6.65084
ltoes -2.50975
490
root 4.42062 17.8959 9.03691 -4.55141 17.1763 -0.146876
lowerback 10.5771 -2.05537 -4.81314
upperback 0.362262 -3.2915 0.332625
thorax -5.26191 -1.49788 3.54145
lowerneck -9.18984 -15.4898 -17.0512
upperneck 18.2214 -22.7737 17.6044
head 11.5504 -10.2963 5.46727
rclavicle 6.76862e-014 -1.19271e-014
rhumerus -43.222 25.5431 -101.095
rradius 86.7907
rwrist 8.12157
rhand -19.5619 12.3111
rfingers 7.12502
rthumb 6.76275 -17.5609
lclavicle 6.76862e-014 -1.19271e-014
lhumerus -44.2851 -26.197 104.93
lradius 86.2266
lwrist 41.2684
lhand -21.5454 48.5695
lfingers 7.12502
lthumb 4.84776 78.494
rfemur -7.86324 1.00276 15.1939
rtibia 28.6351
rfoot -11.9401 -2.00561
rtoes -4.12184
lfemur -5.55922 -0.857754 -20.8281
ltibia 25.3506
lfoot -9.4487 6.68946
ltoes -2.49948
